<svg width="1000" height="1000" viewBox="0 0 1000 1000" fill="none" xmlns="http://www.w3.org/2000/svg">
<path d="M733 607.5C733 619.125 732.418 630.613 731.28 641.938C670.497 698.444 589.036 733 499.5 733C410.505 733 329.488 698.86 268.824 642.96C267.618 631.305 267 619.475 267 607.5C267 457.014 364.623 329.325 500 284.317C635.377 329.325 733 457.014 733 607.5ZM844 392.5C844 381.945 843.525 371.5 842.596 361.186C907.543 423.193 948 510.62 948 607.5C948 795.553 795.553 948 607.5 948C572.285 948 538.323 942.655 506.377 932.733C629.715 889.55 721.021 778.194 735.106 643.838C802.126 580.988 844 491.633 844 392.5ZM265.004 644.875C279.45 778.766 370.603 889.662 493.623 932.733C461.677 942.655 427.715 948 392.5 948C204.447 948 52 795.553 52 607.5C52 511.165 92.0038 424.176 156.311 362.234C155.443 372.207 155 382.302 155 392.5C155 492.179 197.337 581.973 265.004 644.875ZM499.5 52C673.511 52 817.036 182.531 837.499 351.018C776.512 296.292 695.892 263 607.5 263C569.965 263 533.828 269.004 500 280.104C466.172 269.004 430.035 263 392.5 263C303.565 263 222.498 296.702 161.38 352.029C181.39 183.054 325.142 52 499.5 52Z" fill="#D9D9D9"/>
<path d="M733 607.5C733 619.125 732.418 630.613 731.28 641.938C670.497 698.444 589.036 733 499.5 733C410.505 733 329.488 698.86 268.824 642.96C267.618 631.305 267 619.475 267 607.5C267 457.014 364.623 329.325 500 284.317C635.377 329.325 733 457.014 733 607.5ZM844 392.5C844 381.945 843.525 371.5 842.596 361.186C907.543 423.193 948 510.62 948 607.5C948 795.553 795.553 948 607.5 948C572.285 948 538.323 942.655 506.377 932.733C629.715 889.55 721.021 778.194 735.106 643.838C802.126 580.988 844 491.633 844 392.5ZM265.004 644.875C279.45 778.766 370.603 889.662 493.623 932.733C461.677 942.655 427.715 948 392.5 948C204.447 948 52 795.553 52 607.5C52 511.165 92.0038 424.176 156.311 362.234C155.443 372.207 155 382.302 155 392.5C155 492.179 197.337 581.973 265.004 644.875ZM499.5 52C673.511 52 817.036 182.531 837.499 351.018C776.512 296.292 695.892 263 607.5 263C569.965 263 533.828 269.004 500 280.104C466.172 269.004 430.035 263 392.5 263C303.565 263 222.498 296.702 161.38 352.029C181.39 183.054 325.142 52 499.5 52Z" fill="#F06161"/>
<path d="M733 607.5C733 619.125 732.418 630.613 731.28 641.938C670.497 698.444 589.036 733 499.5 733C410.505 733 329.488 698.86 268.824 642.96C267.618 631.305 267 619.475 267 607.5C267 457.014 364.623 329.325 500 284.317C635.377 329.325 733 457.014 733 607.5ZM844 392.5C844 381.945 843.525 371.5 842.596 361.186C907.543 423.193 948 510.62 948 607.5C948 795.553 795.553 948 607.5 948C572.285 948 538.323 942.655 506.377 932.733C629.715 889.55 721.021 778.194 735.106 643.838C802.126 580.988 844 491.633 844 392.5ZM265.004 644.875C279.45 778.766 370.603 889.662 493.623 932.733C461.677 942.655 427.715 948 392.5 948C204.447 948 52 795.553 52 607.5C52 511.165 92.0038 424.176 156.311 362.234C155.443 372.207 155 382.302 155 392.5C155 492.179 197.337 581.973 265.004 644.875ZM499.5 52C673.511 52 817.036 182.531 837.499 351.018C776.512 296.292 695.892 263 607.5 263C569.965 263 533.828 269.004 500 280.104C466.172 269.004 430.035 263 392.5 263C303.565 263 222.498 296.702 161.38 352.029C181.39 183.054 325.142 52 499.5 52Z" stroke="#2C3C4D" stroke-width="4"/>
</svg>
